<svg width="160" height="64" viewBox="0 0 160 64" fill="none" xmlns="http://www.w3.org/2000/svg">
<path d="M119 29.4C119 27.1598 119 26.0397 119.436 25.184C119.819 24.4314 120.431 23.8195 121.184 23.436C122.04 23 123.16 23 125.4 23H130.6C132.84 23 133.96 23 134.816 23.436C135.569 23.8195 136.181 24.4314 136.564 25.184C137 26.0397 137 27.1598 137 29.4V34.6C137 36.8402 137 37.9603 136.564 38.816C136.181 39.5686 135.569 40.1805 134.816 40.564C133.96 41 132.84 41 130.6 41H125.4C123.16 41 122.04 41 121.184 40.564C120.431 40.1805 119.819 39.5686 119.436 38.816C119 37.9603 119 36.8402 119 34.6V29.4Z" fill="#C8CAD7"/>
<path fill-rule="evenodd" clip-rule="evenodd" d="M124.293 30.2929C124.683 29.9024 125.317 29.9024 125.707 30.2929L128 32.5858L130.293 30.2929C130.683 29.9024 131.317 29.9024 131.707 30.2929C132.098 30.6834 132.098 31.3166 131.707 31.7071L128.707 34.7071C128.317 35.0976 127.683 35.0976 127.293 34.7071L124.293 31.7071C123.902 31.3166 123.902 30.6834 124.293 30.2929Z" fill="#404E71"/>
<path fill-rule="evenodd" clip-rule="evenodd" d="M71.436 25.184C71 26.0397 71 27.1598 71 29.4V34.6C71 36.8402 71 37.9603 71.436 38.816C71.8195 39.5686 72.4314 40.1805 73.184 40.564C74.0397 41 75.1598 41 77.4 41H82.6C84.8402 41 85.9603 41 86.816 40.564C87.5686 40.1805 88.1805 39.5686 88.564 38.816C89 37.9603 89 36.8402 89 34.6V29.4C89 27.1598 89 26.0397 88.564 25.184C88.1805 24.4314 87.5686 23.8195 86.816 23.436C85.9603 23 84.8402 23 82.6 23H77.4C75.1598 23 74.0397 23 73.184 23.436C72.4314 23.8195 71.8195 24.4314 71.436 25.184ZM77.7071 30.2929C77.3166 29.9024 76.6834 29.9024 76.2929 30.2929C75.9024 30.6834 75.9024 31.3166 76.2929 31.7071L79.2929 34.7071C79.6834 35.0976 80.3166 35.0976 80.7071 34.7071L83.7071 31.7071C84.0976 31.3166 84.0976 30.6834 83.7071 30.2929C83.3166 29.9024 82.6834 29.9024 82.2929 30.2929L80 32.5858L77.7071 30.2929Z" fill="#404E71"/>
<path fill-rule="evenodd" clip-rule="evenodd" d="M28.2929 30.2929C28.6834 29.9024 29.3166 29.9024 29.7071 30.2929L32 32.5858L34.2929 30.2929C34.6834 29.9024 35.3166 29.9024 35.7071 30.2929C36.0976 30.6834 36.0976 31.3166 35.7071 31.7071L32.7071 34.7071C32.3166 35.0976 31.6834 35.0976 31.2929 34.7071L28.2929 31.7071C27.9024 31.3166 27.9024 30.6834 28.2929 30.2929Z" fill="#404E71"/>
<path fill-rule="evenodd" clip-rule="evenodd" d="M30.3572 23H33.6428C34.7266 23 35.6007 23 36.3086 23.0578C37.0375 23.1174 37.6777 23.2432 38.27 23.545C39.2108 24.0243 39.9757 24.7892 40.455 25.73C40.7568 26.3223 40.8826 26.9625 40.9422 27.6914C41 28.3993 41 29.2734 41 30.3572V33.6428C41 34.7266 41 35.6008 40.9422 36.3086C40.8826 37.0375 40.7568 37.6777 40.455 38.27C39.9757 39.2108 39.2108 39.9757 38.27 40.455C37.6777 40.7568 37.0375 40.8826 36.3086 40.9422C35.6008 41 34.7266 41 33.6428 41H30.3572C29.2734 41 28.3993 41 27.6914 40.9422C26.9625 40.8826 26.3223 40.7568 25.73 40.455C24.7892 39.9757 24.0243 39.2108 23.545 38.27C23.2432 37.6777 23.1174 37.0375 23.0578 36.3086C23 35.6007 23 34.7266 23 33.6428V30.3572C23 29.2734 23 28.3993 23.0578 27.6914C23.1174 26.9625 23.2432 26.3223 23.545 25.73C24.0243 24.7892 24.7892 24.0243 25.73 23.545C26.3223 23.2432 26.9625 23.1174 27.6914 23.0578C28.3993 23 29.2734 23 30.3572 23ZM27.8542 25.0512C27.2491 25.1006 26.9014 25.1928 26.638 25.327C26.0735 25.6146 25.6146 26.0735 25.327 26.638C25.1928 26.9014 25.1006 27.2491 25.0512 27.8542C25.0008 28.4711 25 29.2634 25 30.4V33.6C25 34.7366 25.0008 35.5289 25.0512 36.1458C25.1006 36.7509 25.1928 37.0986 25.327 37.362C25.6146 37.9265 26.0735 38.3854 26.638 38.673C26.9014 38.8072 27.2491 38.8994 27.8542 38.9488C28.4711 38.9992 29.2634 39 30.4 39H33.6C34.7366 39 35.5289 38.9992 36.1458 38.9488C36.7509 38.8994 37.0986 38.8072 37.362 38.673C37.9265 38.3854 38.3854 37.9265 38.673 37.362C38.8072 37.0986 38.8994 36.7509 38.9488 36.1458C38.9992 35.5289 39 34.7366 39 33.6V30.4C39 29.2634 38.9992 28.4711 38.9488 27.8542C38.8994 27.2491 38.8072 26.9014 38.673 26.638C38.3854 26.0735 37.9265 25.6146 37.362 25.327C37.0986 25.1928 36.7509 25.1006 36.1458 25.0512C35.5289 25.0008 34.7366 25 33.6 25H30.4C29.2634 25 28.4711 25.0008 27.8542 25.0512Z" fill="#404E71"/>
<rect x="0.5" y="0.5" width="159" height="63" stroke="#004DE5" stroke-dasharray="10 5"/>
</svg>
